# Blender 4.2.0
# www.blender.org
mtllib Traffic_sign_cercle.mtl
o Cube
v 1.000000 1.000000 -1.000000
v 1.000000 -1.000000 -1.000000
v 1.000000 1.000000 1.000000
v 1.000000 -1.000000 1.000000
v -1.000000 1.000000 -1.000000
v -1.000000 -1.000000 -1.000000
v -1.000000 1.000000 1.000000
v -1.000000 -1.000000 1.000000
vn -0.0000 1.0000 -0.0000
vn -0.0000 -0.0000 1.0000
vn -1.0000 -0.0000 -0.0000
vn -0.0000 -1.0000 -0.0000
vn 1.0000 -0.0000 -0.0000
vn -0.0000 -0.0000 -1.0000
vt 0.625000 0.500000
vt 0.875000 0.500000
vt 0.875000 0.750000
vt 0.625000 0.750000
vt 0.375000 0.750000
vt 0.625000 1.000000
vt 0.375000 1.000000
vt 0.375000 0.000000
vt 0.625000 0.000000
vt 0.625000 0.250000
vt 0.375000 0.250000
vt 0.125000 0.500000
vt 0.375000 0.500000
vt 0.125000 0.750000
s 0
usemtl Material
f 1/1/1 5/2/1 7/3/1 3/4/1
f 4/5/2 3/4/2 7/6/2 8/7/2
f 8/8/3 7/9/3 5/10/3 6/11/3
f 6/12/4 2/13/4 4/5/4 8/14/4
f 2/13/5 1/1/5 3/4/5 4/5/5
f 6/11/6 5/10/6 1/1/6 2/13/6
o Cube.001
v 1.000000 1.000000 -1.000000
v 1.000000 -1.000000 -1.000000
v 1.000000 1.000000 1.000000
v 1.000000 -1.000000 1.000000
v -1.000000 1.000000 -1.000000
v -1.000000 -1.000000 -1.000000
v -1.000000 1.000000 1.000000
v -1.000000 -1.000000 1.000000
vn -0.0000 1.0000 -0.0000
vn -0.0000 -0.0000 1.0000
vn -1.0000 -0.0000 -0.0000
vn -0.0000 -1.0000 -0.0000
vn 1.0000 -0.0000 -0.0000
vn -0.0000 -0.0000 -1.0000
vt 0.625000 0.500000
vt 0.875000 0.500000
vt 0.875000 0.750000
vt 0.625000 0.750000
vt 0.375000 0.750000
vt 0.625000 1.000000
vt 0.375000 1.000000
vt 0.375000 0.000000
vt 0.625000 0.000000
vt 0.625000 0.250000
vt 0.375000 0.250000
vt 0.125000 0.500000
vt 0.375000 0.500000
vt 0.125000 0.750000
s 0
usemtl Material.001
f 9/15/7 13/16/7 15/17/7 11/18/7
f 12/19/8 11/18/8 15/20/8 16/21/8
f 16/22/9 15/23/9 13/24/9 14/25/9
f 14/26/10 10/27/10 12/19/10 16/28/10
f 10/27/11 9/15/11 11/18/11 12/19/11
f 14/25/12 13/24/12 9/15/12 10/27/12
o Sign_Circle
v 0.147830 0.959540 0.012440
v 0.112410 1.012540 0.012440
v 0.059410 1.047960 0.012440
v -0.003110 1.060390 0.012440
v -0.065630 1.047960 0.012440
v -0.118640 1.012540 0.012440
v -0.154050 0.959540 0.012440
v -0.166490 0.897020 0.012440
v -0.154050 0.834500 0.012440
v -0.118640 0.781490 0.012440
v -0.065630 0.746080 0.012440
v -0.003110 0.733640 0.012440
v 0.059410 0.746080 0.012440
v 0.112410 0.781490 0.012440
v 0.147830 0.834500 0.012440
v 0.160260 0.897020 0.012440
v 0.147830 0.959540 0.043060
v 0.112410 1.012540 0.043060
v 0.059410 1.047960 0.043060
v -0.003110 1.060390 0.043060
v -0.065630 1.047960 0.043060
v -0.118640 1.012540 0.043060
v -0.154050 0.959540 0.043060
v -0.166490 0.897020 0.043060
v -0.154050 0.834500 0.043060
v -0.118640 0.781490 0.043060
v -0.065630 0.746080 0.043060
v -0.003110 0.733640 0.043060
v 0.059410 0.746080 0.043060
v 0.112410 0.781490 0.043060
v 0.147830 0.834500 0.043060
v 0.160260 0.897020 0.043060
v -0.003110 0.897020 0.012440
v -0.003110 0.897020 0.043060
v -0.069200 0.946900 0.010450
v -0.050490 0.946900 0.010450
v -0.031790 0.946900 0.010450
v -0.013090 0.946900 -0.019050
v 0.005610 0.946900 -0.019050
v 0.024310 0.946900 0.010450
v 0.043010 0.946900 0.010450
v 0.061710 0.946900 0.010450
v -0.069200 0.902050 0.010450
v -0.050490 0.902050 0.010450
v -0.031790 0.902050 0.010450
v -0.013090 0.902050 -0.019050
v 0.005610 0.902050 -0.019050
v 0.024310 0.902050 0.010450
v 0.043010 0.902050 0.010450
v 0.061710 0.902050 0.010450
v 0.006260 -0.002600 -0.017320
v -0.013740 -0.002600 -0.017320
v -0.023740 -0.002600 0.000000
v -0.013740 -0.002600 0.017320
v 0.006260 -0.002600 0.017320
v 0.016260 -0.002600 0.000000
v 0.006260 1.007070 -0.017320
v -0.013740 1.007070 -0.017320
v -0.023740 1.007070 -0.000000
v -0.013740 1.007070 0.017320
v 0.006260 1.007070 0.017320
v 0.016260 1.007070 -0.000000
v -0.003740 -0.002600 0.000000
v -0.003740 1.007070 -0.000000
v -0.069200 0.868510 0.010450
v -0.050490 0.868510 0.010450
v -0.031790 0.868510 0.010450
v -0.013090 0.868510 -0.019050
v 0.005610 0.868510 -0.019050
v 0.024310 0.868510 0.010450
v 0.043010 0.868510 0.010450
v 0.061710 0.868510 0.010450
v -0.069200 0.823660 0.010450
v -0.050490 0.823660 0.010450
v -0.031790 0.823660 0.010450
v -0.013090 0.823660 -0.019050
v 0.005610 0.823660 -0.019050
v 0.024310 0.823660 0.010450
v 0.043010 0.823660 0.010450
v 0.061710 0.823660 0.010450
vn 0.9239 0.3827 -0.0000
vn 0.7071 0.7071 -0.0000
vn 0.3827 0.9239 -0.0000
vn -0.0000 1.0000 -0.0000
vn -0.3826 0.9239 -0.0000
vn -0.7071 0.7071 -0.0000
vn -0.9239 0.3827 -0.0000
vn -1.0000 -0.0000 -0.0000
vn -0.9239 -0.3827 -0.0000
vn -0.7071 -0.7071 -0.0000
vn -0.3827 -0.9239 -0.0000
vn -0.0000 -1.0000 -0.0000
vn 0.3827 -0.9239 -0.0000
vn 0.7071 -0.7071 -0.0000
vn 0.9239 -0.3826 -0.0000
vn 1.0000 -0.0000 -0.0000
vn -0.0000 -0.0000 -1.0000
vn -0.8660 -0.0000 -0.5000
vn -0.8660 -0.0000 0.5000
vn -0.0000 -0.0000 1.0000
vn 0.8660 -0.0000 0.5000
vn 0.8660 -0.0000 -0.5000
vn -0.6193 -0.0000 -0.7851
vn 0.6193 -0.0000 -0.7851
vn 0.8446 -0.0000 -0.5354
vn 0.6193 -0.0000 -0.7852
vt 0.690167 0.186310
vt 0.690167 0.075760
vt 0.841716 0.075760
vt 0.841716 0.186310
vt 0.690167 0.001893
vt 0.841716 0.001893
vt 0.840324 0.635525
vt 0.840324 0.765928
vt 0.688774 0.765928
vt 0.688774 0.635525
vt 0.840324 0.896331
vt 0.688774 0.896331
vt 0.846459 0.631534
vt 0.846459 0.557667
vt 0.998008 0.557667
vt 0.998008 0.631534
vt 0.846459 0.447116
vt 0.998008 0.447116
vt 0.846459 0.316713
vt 0.998008 0.316713
vt 0.846459 0.186310
vt 0.998008 0.186310
vt 0.846459 0.075760
vt 0.998008 0.075760
vt 0.846459 0.001893
vt 0.998008 0.001893
vt 0.531090 0.948209
vt 0.531090 0.817806
vt 0.682639 0.817806
vt 0.682639 0.948209
vt 0.531090 0.687403
vt 0.682639 0.687403
vt 0.690167 0.631534
vt 0.690167 0.557667
vt 0.841716 0.557667
vt 0.841716 0.631534
vt 0.690167 0.447116
vt 0.841716 0.447116
vt 0.690167 0.316713
vt 0.841716 0.316713
vt 0.583705 0.101699
vt 0.657572 0.212249
vt 0.342752 0.342652
vt 0.473155 0.027832
vt 0.342752 0.001893
vt 0.212349 0.027831
vt 0.101798 0.101699
vt 0.027931 0.212249
vt 0.001992 0.342652
vt 0.027931 0.473055
vt 0.101798 0.583605
vt 0.212348 0.657473
vt 0.342752 0.683412
vt 0.473154 0.657473
vt 0.583705 0.583605
vt 0.657572 0.473055
vt 0.683511 0.342652
vt 1.333365 -2.555556
vt 1.666698 -2.555556
vt 1.666698 3.555556
vt 1.333365 3.555556
vt -0.333302 -2.555556
vt 0.000032 -2.555556
vt 0.000032 3.555556
vt -0.333302 3.555556
vt 0.333365 -2.555556
vt 0.333365 3.555556
vt 0.666698 -2.555556
vt 0.666698 3.555556
vt 1.000032 -2.555556
vt 1.000032 3.555556
vt 0.499968 -2.555556
vt 2.499968 3.555556
vt 0.499968 3.555556
vt 0.961940 0.691341
vt 0.853554 0.853553
vt 0.500000 0.500000
vt 0.691342 0.961940
vt 0.500000 1.000000
vt 0.308659 0.961940
vt 0.146447 0.853554
vt 0.038060 0.691342
vt 0.000000 0.500000
vt 0.038060 0.308659
vt 0.146447 0.146447
vt 0.308658 0.038060
vt 0.500000 0.000000
vt 0.691342 0.038060
vt 0.853553 0.146447
vt 0.961940 0.308658
vt 1.000000 0.500000
vt 0.000000 1.000000
vt 0.142857 1.000000
vt 0.142857 0.000000
vt 0.000000 0.000000
vt 0.285714 1.000000
vt 0.285714 0.000000
vt 0.428571 1.000000
vt 0.428571 0.000000
vt 0.571429 1.000000
vt 0.571429 0.000000
vt 0.714286 1.000000
vt 0.714286 0.000000
vt 0.857143 1.000000
vt 0.857143 0.000000
vt 1.000000 1.000000
vt 1.000000 0.000000
s 1
usemtl Metal
f 17/29/13 18/30/14 34/31/14 33/32/13
f 18/30/14 19/33/15 35/34/15 34/31/14
f 19/35/15 20/36/16 36/37/16 35/38/15
f 20/36/16 21/39/17 37/40/17 36/37/16
f 21/41/17 22/42/18 38/43/18 37/44/17
f 22/42/18 23/45/19 39/46/19 38/43/18
f 23/45/19 24/47/20 40/48/20 39/46/19
f 24/47/20 25/49/21 41/50/21 40/48/20
f 25/49/21 26/51/22 42/52/22 41/50/21
f 26/51/22 27/53/23 43/54/23 42/52/22
f 27/55/23 28/56/24 44/57/24 43/58/23
f 28/56/24 29/59/25 45/60/25 44/57/24
f 29/61/25 30/62/26 46/63/26 45/64/25
f 30/62/26 31/65/27 47/66/27 46/63/26
f 31/65/27 32/67/28 48/68/28 47/66/27
f 32/67/28 17/29/13 33/32/13 48/68/28
f 18/69/29 17/70/29 49/71/29
f 19/72/29 18/69/29 49/71/29
f 20/73/29 19/72/29 49/71/29
f 21/74/29 20/73/29 49/71/29
f 22/75/29 21/74/29 49/71/29
f 23/76/29 22/75/29 49/71/29
f 24/77/29 23/76/29 49/71/29
f 25/78/29 24/77/29 49/71/29
f 26/79/29 25/78/29 49/71/29
f 27/80/29 26/79/29 49/71/29
f 28/81/29 27/80/29 49/71/29
f 29/82/29 28/81/29 49/71/29
f 30/83/29 29/82/29 49/71/29
f 31/84/29 30/83/29 49/71/29
f 32/85/29 31/84/29 49/71/29
f 17/70/29 32/85/29 49/71/29
f 67/86/29 68/87/29 74/88/29 73/89/29
f 68/90/30 69/91/30 75/92/30 74/93/30
f 69/91/31 70/94/31 76/95/31 75/92/31
f 70/94/32 71/96/32 77/97/32 76/95/32
f 71/96/33 72/98/33 78/99/33 77/97/33
f 72/98/34 67/86/34 73/89/34 78/99/34
f 68/87/24 67/86/24 79/100/24
f 69/91/24 68/90/24 79/100/24
f 70/94/24 69/91/24 79/100/24
f 71/96/24 70/94/24 79/100/24
f 72/98/24 71/96/24 79/100/24
f 67/86/24 72/98/24 79/100/24
f 73/89/16 74/88/16 80/101/16
f 74/93/16 75/92/16 80/102/16
f 75/92/16 76/95/16 80/102/16
f 76/95/16 77/97/16 80/102/16
f 77/97/16 78/99/16 80/102/16
f 78/99/16 73/89/16 80/102/16
usemtl Sign3
f 33/103/32 34/104/32 50/105/32
f 34/104/32 35/106/32 50/105/32
f 35/106/32 36/107/32 50/105/32
f 36/107/32 37/108/32 50/105/32
f 37/108/32 38/109/32 50/105/32
f 38/109/32 39/110/32 50/105/32
f 39/110/32 40/111/32 50/105/32
f 40/111/32 41/112/32 50/105/32
f 41/112/32 42/113/32 50/105/32
f 42/113/32 43/114/32 50/105/32
f 43/114/32 44/115/32 50/105/32
f 44/115/32 45/116/32 50/105/32
f 45/116/32 46/117/32 50/105/32
f 46/117/32 47/118/32 50/105/32
f 47/118/32 48/119/32 50/105/32
f 48/119/32 33/103/32 50/105/32
usemtl SmallPart
f 51/120/29 52/121/29 60/122/29 59/123/29
f 52/121/29 53/124/29 61/125/29 60/122/29
f 53/124/35 54/126/35 62/127/35 61/125/35
f 54/126/29 55/128/36 63/129/36 62/127/29
f 55/128/37 56/130/38 64/131/38 63/129/37
f 56/130/29 57/132/29 65/133/29 64/131/29
f 57/132/29 58/134/29 66/135/29 65/133/29
f 81/120/29 82/121/29 90/122/29 89/123/29
f 82/121/29 83/124/29 91/125/29 90/122/29
f 83/124/35 84/126/35 92/127/35 91/125/35
f 84/126/29 85/128/36 93/129/36 92/127/29
f 85/128/37 86/130/38 94/131/38 93/129/37
f 86/130/29 87/132/29 95/133/29 94/131/29
f 87/132/29 88/134/29 96/135/29 95/133/29
